<svg width="60" height="60" viewBox="0 0 60 60" fill="none" xmlns="http://www.w3.org/2000/svg">
<path d="M57.857 27.8571C57.857 49.2857 29.9999 60 29.9999 60C29.9999 60 2.14282 49.2857 2.14282 27.8571C2.14282 12.472 14.6149 0 29.9999 0C45.385 0 57.857 12.472 57.857 27.8571Z" fill="#7ADED1"/>
<path d="M30 0C45.3851 0 57.8571 12.472 57.8571 27.8571C57.8571 49.2857 30 60 30 60" fill="#2DD4BF"/>
<path d="M47.9917 35.402C43.5659 39.9018 34.6308 38.2908 34.6308 38.2908C34.6308 38.2908 32.872 29.3836 37.2977 24.8839C41.7235 20.3841 50.6588 21.9951 50.6588 21.9951C50.6588 21.9951 52.4178 30.902 47.9917 35.402Z" fill="#1E2E3B"/>
<path d="M12.0082 35.402C16.434 39.9018 25.3691 38.2908 25.3691 38.2908C25.3691 38.2908 27.1282 29.3836 22.7023 24.8839C18.2763 20.3841 9.34127 21.9951 9.34127 21.9951C9.34127 21.9951 7.5824 30.902 12.0082 35.402Z" fill="#3C5D76"/>
<path d="M23.5713 45C23.5713 48.5503 26.4495 51.4286 29.9998 51.4286C33.5502 51.4286 36.4284 48.5503 36.4284 45H23.5713Z" fill="#3C5D76"/>
<path d="M30 45C30 48.5503 30 49.5 30 51.4286C33.5503 51.4286 36.4286 48.5503 36.4286 45H30Z" fill="#1E2E3B"/>
</svg>
