<svg width="49" height="55" viewBox="0 0 49 55" fill="none" xmlns="http://www.w3.org/2000/svg">
<path d="M16.7607 38.2101C13.8478 35.4686 12.1343 31.699 12.1343 27.4153C12.1343 23.1317 13.8478 19.3621 16.5893 16.6206C18.9882 14.2217 18.9882 10.4521 16.5893 8.05328C14.1905 5.65444 10.4209 5.65444 8.02204 8.05328C3.22436 13.0223 0.140137 19.8761 0.140137 27.4153C0.140137 34.9545 3.22436 41.8084 8.19338 46.7774C10.5922 49.1762 14.3618 49.1762 16.7607 46.7774C18.9882 44.3786 18.9882 40.609 16.7607 38.2101Z" fill="#CDCBD3"/>
<path d="M16.7607 16.6205C19.5022 13.7077 23.2718 11.9942 27.5555 11.9942C31.8391 11.9942 35.6087 13.7077 38.3503 16.4492C40.7491 18.848 44.5187 18.848 46.9175 16.4492C49.3164 14.0503 49.3164 10.2807 46.9175 7.8819C41.9485 3.08422 35.0947 0 27.5555 0C20.0163 0 13.1624 3.08422 8.19342 8.05325C5.79458 10.4521 5.79458 14.2217 8.19342 16.6205C10.5923 18.848 14.3619 18.848 16.7607 16.6205Z" fill="white"/>
<path d="M38.3503 38.21C35.6087 41.1229 31.8391 42.8364 27.5555 42.8364C23.2718 42.8364 19.5022 41.1229 16.7607 38.3814C14.3619 35.9826 10.5923 35.9826 8.19342 38.3814C5.79458 40.7802 5.79458 44.5498 8.19342 46.9487C13.1624 51.7464 20.0163 54.8306 27.5555 54.8306C35.0947 54.8306 41.9485 51.7464 46.9175 46.7773C49.3164 44.3785 49.3164 40.6089 46.9175 38.21C44.5187 35.9826 40.7491 35.9826 38.3503 38.21Z" fill="white"/>
<path d="M12.4771 18.334C15.7892 18.334 18.4742 15.649 18.4742 12.3369C18.4742 9.02484 15.7892 6.33984 12.4771 6.33984C9.16497 6.33984 6.47998 9.02484 6.47998 12.3369C6.47998 15.649 9.16497 18.334 12.4771 18.334Z" fill="white"/>
<path d="M12.4771 48.4908C15.7892 48.4908 18.4742 45.8058 18.4742 42.4937C18.4742 39.1816 15.7892 36.4966 12.4771 36.4966C9.16497 36.4966 6.47998 39.1816 6.47998 42.4937C6.47998 45.8058 9.16497 48.4908 12.4771 48.4908Z" fill="white"/>
</svg>
