<svg width="55" height="55" viewBox="0 0 55 55" fill="none" xmlns="http://www.w3.org/2000/svg">
<path d="M9.96875 42.2813L10.2609 41.8739L24.0453 15.7249L24.0745 15.4482L17.9987 4.03566C17.8875 3.82696 17.7135 3.65853 17.5013 3.55418C17.289 3.44983 17.0494 3.41485 16.8162 3.45419C16.583 3.49353 16.3681 3.6052 16.2018 3.77339C16.0356 3.94159 15.9265 4.1578 15.8898 4.39144L9.96875 42.2813Z" fill="white"/>
<path d="M10.1406 41.9718L10.3606 41.5421L24.0023 15.6646L17.942 4.20745C17.8421 4.0082 17.6803 3.84669 17.4808 3.74713C17.2814 3.64757 17.0551 3.61531 16.8358 3.65519C16.6164 3.69506 16.416 3.80492 16.2643 3.96832C16.1127 4.13171 16.0181 4.33983 15.9947 4.56151L10.1406 41.9718Z" fill="white"/>
<path d="M28.5037 24.0797L33.0274 19.4391L28.502 10.8093C28.4024 10.6235 28.2543 10.4683 28.0734 10.3601C27.8926 10.2519 27.6858 10.1947 27.475 10.1947C27.2643 10.1947 27.0575 10.2519 26.8766 10.3601C26.6958 10.4683 26.5477 10.6235 26.4481 10.8093L24.0298 15.419V15.8126L28.5037 24.0797Z" fill="white"/>
<path d="M28.4229 23.8907L32.8212 19.3875L28.4229 11C28.3509 10.8185 28.2279 10.6616 28.0688 10.5484C27.9097 10.4351 27.7212 10.3703 27.5261 10.3618C27.331 10.3533 27.1376 10.4014 26.9691 10.5003C26.8007 10.5992 26.6645 10.7447 26.577 10.9193L24.1467 15.6097L24.0745 15.8486L28.4229 23.8907Z" fill="#E5E5E5"/>
<path d="M9.97217 42.2829L10.1045 42.1488L10.584 41.9546L28.2184 24.3856L28.4419 23.7771L24.0436 15.3931L9.97217 42.2829Z" fill="#E5E5E5"/>
<path d="M29.0675 51.1432L45.0313 42.2418L40.4697 14.1729C40.437 13.975 40.3504 13.79 40.2194 13.6381C40.0885 13.4862 39.9182 13.3733 39.7273 13.3119C39.5364 13.2504 39.3322 13.2428 39.1372 13.2898C38.9423 13.3367 38.764 13.4365 38.622 13.5782L9.96875 42.2813L25.838 51.1415C26.3313 51.4168 26.8869 51.5613 27.4519 51.5613C28.0168 51.5613 28.5724 51.4168 29.0658 51.1415" fill="white"/>
<path d="M44.8852 42.1678L40.3614 14.3103C40.3534 14.121 40.2895 13.9384 40.1776 13.7855C40.0658 13.6326 39.9111 13.5163 39.7332 13.4514C39.5553 13.3864 39.362 13.3757 39.178 13.4206C38.994 13.4655 38.8274 13.564 38.6994 13.7036L10.1406 42.2279L25.8345 50.9936C26.324 51.2666 26.8751 51.4099 27.4355 51.4099C27.996 51.4099 28.5471 51.2666 29.0366 50.9936L44.8852 42.1678Z" fill="white"/>
<path d="M29.0675 50.875C28.5741 51.1503 28.0186 51.2948 27.4536 51.2948C26.8886 51.2948 26.333 51.1503 25.8397 50.875L10.0994 42.1472L9.96875 42.2813L25.838 51.1414C26.3313 51.4167 26.8869 51.5612 27.4519 51.5612C28.0168 51.5612 28.5724 51.4167 29.0658 51.1414L45.0313 42.2417L44.9917 42.0011L29.0675 50.875Z" fill="#E5E5E5"/>
</svg>
