<svg width="47" height="47" viewBox="0 0 47 47" fill="none" xmlns="http://www.w3.org/2000/svg">
<path fill-rule="evenodd" clip-rule="evenodd" d="M45.5517 21.4585L25.5406 1.44791C24.3884 0.295196 22.5194 0.295196 21.3662 1.44791L17.2113 5.60385L22.482 10.8751C23.707 10.4611 25.1116 10.7389 26.0883 11.7151C27.0699 12.6977 27.3452 14.1143 26.9208 15.3438L32.0015 20.424C33.231 20 34.6486 20.2738 35.6302 21.2575C37.0019 22.6286 37.0019 24.8518 35.6302 26.224C34.2575 27.5966 32.0349 27.5966 30.6617 26.224C29.6302 25.1914 29.3748 23.6751 29.8981 22.4042L25.1595 17.6662V30.1345C25.4937 30.3001 25.8095 30.5206 26.0883 30.7984C27.46 32.1701 27.46 34.3927 26.0883 35.7664C24.7166 37.1375 22.4925 37.1375 21.1213 35.7664C19.7496 34.3927 19.7496 32.1701 21.1213 30.7984C21.4605 30.4597 21.853 30.2033 22.272 30.0317V17.4482C21.853 17.2771 21.4615 17.0227 21.1213 16.682C20.0823 15.6436 19.8324 14.1182 20.3656 12.8423L15.1692 7.64541L1.44741 21.3657C0.295199 22.5194 0.295199 24.3884 1.44741 25.5411L21.4595 45.5517C22.6117 46.7039 24.4802 46.7039 25.6339 45.5517L45.5517 25.6339C46.7049 24.4812 46.7049 22.6112 45.5517 21.4585Z" fill="white"/>
</svg>
