<svg width="32" height="30" viewBox="0 0 32 30" fill="none" xmlns="http://www.w3.org/2000/svg">
<g clip-path="url(#clip0_13_518)">
<path d="M15.9524 0.371253C7.38961 0.371253 0.452393 7.09031 0.452393 15.3713C0.452393 22.0022 4.89314 27.6225 11.0476 29.6053C11.8255 29.7469 12.1065 29.2828 12.1065 28.8816C12.1065 28.5253 12.0977 27.5831 12.0919 26.3325C7.77808 27.2363 6.86939 24.3159 6.86939 24.3159C6.16317 22.5872 5.14405 22.1231 5.14405 22.1231C3.7413 21.1959 5.25546 21.2156 5.25546 21.2156C6.80933 21.3178 7.62696 22.7578 7.62696 22.7578C9.00936 25.0528 11.254 24.3891 12.1423 24.0028C12.2779 23.0363 12.6819 22.3716 13.1217 22.0013C9.68071 21.6253 6.06242 20.3363 6.06242 14.5884C6.06242 12.9469 6.66305 11.61 7.65602 10.56C7.48455 10.1841 6.95949 8.65594 7.79261 6.58969C7.79261 6.58969 9.08977 6.18938 12.0551 8.12813C13.2961 7.79532 14.6136 7.62938 15.9301 7.62094C17.2476 7.62938 18.5641 7.79625 19.8051 8.12813C22.753 6.18938 24.0492 6.58969 24.0492 6.58969C24.8814 8.65594 24.3563 10.1831 24.2052 10.56C25.1885 11.61 25.7891 12.9478 25.7891 14.5884C25.7891 20.3494 22.166 21.6197 18.7211 21.9863C19.2597 22.4353 19.7644 23.3588 19.7644 24.7603C19.7644 26.7666 19.7451 28.3828 19.7451 28.8713C19.7451 29.2613 20.0163 29.73 20.8145 29.5791C27.0145 27.6169 31.4505 21.9919 31.4505 15.3703C31.4505 7.08938 24.5132 0.370316 15.9505 0.370316L15.9524 0.371253Z" fill="white"/>
</g>
<defs>
<clipPath id="clip0_13_518">
<rect width="31" height="30" fill="white" transform="translate(0.452393)"/>
</clipPath>
</defs>
</svg>
