<svg width="55" height="55" viewBox="0 0 55 55" fill="none" xmlns="http://www.w3.org/2000/svg">
<path d="M40.8186 51.571C40.6141 51.6793 40.6312 51.7137 40.8272 51.614C40.8908 51.5882 40.9441 51.5521 40.9905 51.5092C40.9905 51.4731 40.9905 51.4731 40.8186 51.571ZM41.2311 51.3476C41.1331 51.4284 41.1331 51.4284 41.25 51.3751C41.3119 51.339 41.3669 51.3046 41.3669 51.2943C41.3669 51.2479 41.3394 51.2582 41.2311 51.3476ZM41.4992 51.186C41.4012 51.2668 41.4012 51.2668 41.5181 51.2135C41.5817 51.1775 41.635 51.1396 41.635 51.131C41.635 51.0881 41.6075 51.0967 41.4992 51.186ZM41.7708 51.0262C41.6728 51.107 41.6728 51.107 41.7863 51.052C41.8498 51.0176 41.9031 50.9815 41.9031 50.9712C41.9031 50.9282 41.8756 50.9368 41.7708 51.0262ZM42.1369 50.7839C41.9495 50.9093 41.8842 50.9901 42.0561 50.9007C42.1712 50.8303 42.3672 50.6756 42.3328 50.6756C42.2589 50.7031 42.197 50.7495 42.1352 50.7839H42.1369ZM25.7005 0.0188584C25.575 0.0274522 25.1986 0.0618272 24.8686 0.0893272C17.0517 0.797452 9.73844 5.00495 5.10297 11.4864C2.54031 15.039 0.876563 19.1657 0.249219 23.4987C0.0275 25.0112 0 25.4581 0 27.5085C0 29.5573 0.0275 29.9973 0.249219 31.5098C1.74625 41.8412 9.09563 50.514 19.0575 53.7281C20.8502 54.3004 22.7288 54.6957 24.8686 54.9381C25.7005 55.0275 29.2978 55.0275 30.1297 54.9381C33.8284 54.5256 36.9514 53.6129 40.0417 52.0368C40.5161 51.7962 40.6055 51.7326 40.5419 51.6793C39.0294 49.6839 37.5444 47.6867 36.0577 45.6723L31.6628 39.7375L26.1577 31.582C24.322 28.8526 22.4795 26.1301 20.6078 23.4282C20.5889 23.4282 20.5648 27.0531 20.5545 31.4737C20.5356 39.2167 20.5356 39.5312 20.4377 39.7099C20.3397 39.9248 20.1781 40.1035 19.9633 40.2032C19.7931 40.284 19.6402 40.3012 18.8272 40.3012H17.8973L17.655 40.15C17.5037 40.052 17.3783 39.9162 17.2975 39.7564L17.1806 39.514L17.1892 28.7357L17.2081 17.9575L17.3783 17.7426C17.4866 17.6103 17.6206 17.502 17.7719 17.4212C17.997 17.3129 18.0864 17.2957 19.0163 17.2957C20.1077 17.2957 20.2881 17.3387 20.5752 17.6532C22.8027 20.9739 25.0233 24.3031 27.2078 27.6426C30.7811 33.0601 35.6589 40.4524 38.0566 44.079L42.417 50.6773L42.6319 50.5346C44.727 49.1373 46.6331 47.4735 48.278 45.576C51.743 41.6092 53.9911 36.7296 54.7525 31.5218C54.9742 30.0093 55.0017 29.5607 55.0017 27.512C55.0017 25.4615 54.9742 25.0232 54.7525 23.5107C53.2555 13.1793 45.9061 4.50652 35.9442 1.29073C34.0811 0.701202 32.1647 0.299015 30.2242 0.0927647C29.7034 0.0394835 26.1491 -0.0241103 25.7022 0.0222959L25.7005 0.0188584ZM36.9531 16.6512C37.2127 16.775 37.4086 17.0087 37.498 17.2768C37.5444 17.4212 37.553 20.4101 37.5444 27.1425L37.5255 36.8087L35.8256 34.1962L34.1155 31.582V24.5643C34.1155 20.0148 34.1344 17.4642 34.1584 17.3387C34.2392 17.0517 34.4352 16.811 34.6964 16.6598C34.9095 16.5515 34.992 16.5429 35.8428 16.5429C36.6386 16.5429 36.7727 16.5515 36.9514 16.6512H36.9531Z" fill="white"/>
</svg>
