<svg width="55" height="53" viewBox="0 0 55 53" fill="none" xmlns="http://www.w3.org/2000/svg">
<path d="M38.109 36.8598C34.2418 44.766 27.47 50.0856 18.511 51.8344C17.1373 52.1709 15.7272 52.3355 14.3129 52.3242C9.15668 52.3242 4.43012 50.1758 2.13559 46.6567C-0.945273 41.9688 -1.99371 32.0301 8.1641 24.6781C8.37035 25.7996 8.79145 27.3379 9.07074 28.2489C7.0767 29.7303 5.44451 31.6445 4.29691 33.8477C2.40629 37.5602 2.61684 41.2684 4.85551 44.6973C6.40238 47.009 8.8516 48.4141 12.0012 48.8438C15.9352 49.3417 19.9261 48.5901 23.4094 46.6953C28.8707 43.825 32.5102 40.3961 34.8907 35.7082C34.2175 35.0126 33.8191 34.0968 33.7692 33.1301C33.7332 32.0928 34.1102 31.0836 34.8175 30.3239C35.5248 29.5642 36.5046 29.1162 37.5418 29.0781H37.6879C38.6968 29.0731 39.669 29.4561 40.4034 30.1478C41.1378 30.8396 41.5782 31.7872 41.6334 32.7946C41.6886 33.802 41.3544 34.7921 40.7 35.56C40.0456 36.3278 39.121 36.8147 38.1176 36.9199L38.109 36.8598ZM50.4282 28.1801C55.6746 34.127 55.8164 41.1266 53.7883 45.1871C51.8977 48.8953 46.9133 52.6078 40.2102 52.6078C37.0811 52.544 34.0028 51.8038 31.1868 50.4379C32.1707 49.7375 33.5672 48.616 34.3364 47.9156C36.508 48.8564 38.8449 49.356 41.2114 49.3852C45.5512 49.3852 48.8383 47.3571 50.7977 43.6489C52.0567 41.1996 52.1297 38.3293 50.9395 35.3903C49.479 31.6923 46.8802 28.5547 43.5188 26.4313C39.1088 23.4585 33.9099 21.8737 28.5914 21.8809H27.3325C27.0389 22.559 26.5613 23.1415 25.9538 23.5622C25.3462 23.9829 24.633 24.2251 23.895 24.2614H23.7618C22.7409 24.2488 21.7651 23.8388 21.0417 23.1184C20.3183 22.3979 19.9042 21.4239 19.8875 20.4031C19.8707 19.3823 20.2525 18.3951 20.9518 17.6513C21.6512 16.9075 22.6129 16.4657 23.6329 16.4196H23.7746C24.4854 16.4201 25.1822 16.6165 25.7886 16.9871C26.395 17.3578 26.8876 17.8884 27.2121 18.5207H28.3336C37.2711 18.5207 45.1172 21.9496 50.4282 28.1801ZM14.8715 38.0629C14.7979 37.3494 14.9708 36.6322 15.3614 36.0305C11.4426 29.2414 9.34574 20.6348 12.5641 11.6758C14.8715 4.9426 20.6809 0.392212 26.9801 0.392212C33.7004 0.392212 40.7 6.27463 41.5379 17.6098C40.4895 17.2617 38.9598 16.7504 38.0403 16.5614C37.8125 12.8531 34.6801 3.61487 27.2594 3.75237C24.5996 3.82542 20.6809 5.0844 18.6657 7.67112C16.1729 10.7589 14.7227 14.5573 14.5235 18.5207C14.0511 23.9553 15.3262 29.3988 18.1629 34.0582C18.3195 34.001 18.4865 33.9776 18.6528 33.9895H18.7903C19.8296 33.9707 20.8338 34.3655 21.582 35.0871C22.3302 35.8087 22.7611 36.798 22.7799 37.8373C22.7987 38.8766 22.4039 39.8809 21.6823 40.6291C20.9607 41.3773 19.9714 41.8082 18.9321 41.827H18.7903C17.7763 41.8234 16.8029 41.4286 16.0729 40.725C15.3428 40.0214 14.9125 39.0631 14.8715 38.05V38.0629Z" fill="white"/>
</svg>
