<svg width="49" height="37" viewBox="0 0 49 37" fill="none" xmlns="http://www.w3.org/2000/svg">
<path d="M41.8766 21.2019C40.3653 21.2039 38.8743 21.5495 37.5162 22.2126C37.091 21.5069 36.7626 20.7473 36.5399 19.9541C36.412 19.3324 36.3824 18.6944 36.4523 18.0635C36.5992 17.3692 36.7898 16.685 37.0229 16.0147C37.0143 15.9271 36.9181 15.5129 35.9504 15.4991C34.9827 15.4854 34.1491 15.683 34.0598 15.9391C33.8917 16.4069 33.7567 16.8859 33.6559 17.3726C32.855 19.3483 31.8692 21.2439 30.7116 23.0341C30.0631 21.9709 29.7963 20.7184 29.9554 19.4832C30.1023 18.7889 30.2929 18.1047 30.526 17.4344C30.5174 17.3468 30.4212 16.9326 29.4535 16.9188C28.4859 16.9051 27.6523 17.1027 27.5629 17.3588C27.4735 17.6149 27.3601 18.2182 27.159 18.7922C26.9579 19.3663 24.6101 24.6119 23.9948 25.9646C23.6785 26.6521 23.4052 27.2124 23.2127 27.5905C23.2036 27.6151 23.1921 27.6387 23.1784 27.661C23.0065 27.9858 22.9154 28.1629 22.9154 28.1629V28.1715C22.7831 28.4086 22.6421 28.6286 22.5716 28.6286C22.4487 28.1376 22.4547 27.6231 22.5888 27.1351C22.9326 25.3149 23.7748 22.4858 23.7662 22.3879C23.7662 22.3346 23.9243 21.843 23.2213 21.5886C23.0583 21.5111 22.8752 21.4859 22.6973 21.5167C22.5194 21.5475 22.3554 21.6327 22.2279 21.7605C22.166 21.7605 22.1231 21.9101 22.1231 21.9101C22.1231 21.9101 22.8879 18.7286 20.6638 18.7286C19.7977 18.9029 18.9752 19.2485 18.2447 19.7453C17.5142 20.2421 16.8903 20.8799 16.4099 21.6213C15.8118 21.9461 14.5382 22.6405 13.1752 23.3882C12.6596 23.6786 12.1199 23.9691 11.6198 24.2476C11.5854 24.2132 11.5493 24.1685 11.5149 24.1341C8.8079 21.2501 3.83211 19.2151 4.04696 15.3565C4.12602 13.9505 4.60899 10.2586 13.6015 5.77443C21.0024 2.12724 26.8926 3.13787 27.9118 5.37912C29.371 8.57943 24.7562 14.5211 17.1095 15.3822C16.2635 15.5539 15.3898 15.5332 14.5529 15.3216C13.716 15.1101 12.9374 14.7132 12.2746 14.1602C11.8707 13.7202 11.8088 13.6944 11.6593 13.7821C11.4135 13.9144 11.5716 14.3097 11.6593 14.5383C11.951 15.0662 12.3456 15.5303 12.8197 15.9032C13.2938 16.276 13.8378 16.5501 14.4196 16.7091C17.4278 17.3592 20.5642 17.0484 23.3863 15.8205C28.027 14.0279 31.6363 9.04349 30.5776 4.86865C29.5137 0.631928 22.4823 -0.765417 15.8273 1.60302C11.6589 3.00565 7.80729 5.21498 4.49212 8.10505C0.826022 11.534 0.246802 14.5126 0.48399 15.7621C1.34336 20.193 7.44665 23.0754 9.88899 25.2152C9.76524 25.2857 9.6518 25.3476 9.55555 25.3991C8.33352 26.0058 3.67571 28.4413 2.50868 31.016C1.1904 33.9379 2.72008 36.0261 3.73071 36.308C5.25353 36.6726 6.85217 36.5525 8.30346 35.9646C9.75475 35.3767 10.9862 34.3503 11.826 33.0286C12.5411 31.9325 12.9807 30.6797 13.1073 29.377C13.2339 28.0743 13.0437 26.7603 12.5531 25.5469C12.5448 25.5273 12.5331 25.5093 12.5187 25.4936L13.476 24.9316C14.0999 24.5621 14.7152 24.2201 15.2429 23.9382C14.8851 24.9702 14.675 26.0476 14.619 27.1385C14.4975 28.8104 15.0092 30.4669 16.0524 31.7791C16.2112 31.9158 16.3955 32.0196 16.5946 32.0845C16.7938 32.1494 17.0038 32.1741 17.2126 32.1572C18.2438 32.1572 18.7165 31.2979 19.2338 30.2769C19.8663 29.0291 20.437 27.5785 20.437 27.5785C20.437 27.5785 19.7254 31.499 21.659 31.499C22.362 31.499 23.0735 30.5846 23.3915 30.124V30.1326C23.3915 30.1326 23.4087 30.1068 23.4448 30.0449L23.5582 29.861V29.8438C23.8401 29.3522 24.4726 28.2351 25.4127 26.3805C26.6262 23.9897 27.7949 21.0008 27.7949 21.0008C27.9077 21.6577 28.0632 22.3065 28.2607 22.943C28.5438 23.7146 28.8786 24.4663 29.2627 25.1929C28.9809 25.5882 28.8056 25.8082 28.8056 25.8082L28.8141 25.8168C28.5856 26.1158 28.3398 26.4407 28.0665 26.7569C27.2534 27.6508 26.499 28.5964 25.8081 29.5877C25.7054 29.7542 25.6701 29.9536 25.7094 30.1452C25.7487 30.3369 25.8596 30.5063 26.0195 30.619C26.3813 30.8072 26.7937 30.8753 27.1968 30.8132C27.8043 30.7789 28.4016 30.6423 28.9637 30.4093C29.5068 30.2181 30.0192 29.9489 30.4848 29.6101C30.9647 29.2776 31.351 28.8272 31.6066 28.3022C31.8621 27.7773 31.9783 27.1954 31.944 26.6126C31.8899 25.8784 31.7024 25.1602 31.3906 24.4933C31.4782 24.3696 31.5624 24.2476 31.6449 24.1238C32.6221 22.6652 33.5028 21.1443 34.2815 19.5708C34.3942 20.2277 34.5498 20.8765 34.7473 21.513C34.9808 22.1798 35.2682 22.8265 35.6066 23.4466C34.4825 24.3115 33.597 25.4484 33.0337 26.7501C32.4802 28.3502 32.9099 29.0704 33.7212 29.2371C34.1651 29.2677 34.6089 29.1768 35.0051 28.9741C35.5875 28.7827 36.1362 28.5008 36.631 28.1388C37.1528 27.8309 37.5897 27.3981 37.9027 26.8794C38.2156 26.3606 38.3946 25.7722 38.4237 25.1671C38.3847 24.5631 38.2483 23.9693 38.0198 23.4088C39.5032 22.8293 41.1117 22.6445 42.6879 22.8726C46.8713 23.3641 47.6981 25.9749 47.5399 27.0749C47.4658 27.4649 47.309 27.8344 47.0801 28.1587C46.8513 28.4831 46.5556 28.7546 46.2131 28.9552C45.9226 29.1391 45.8263 29.201 45.8521 29.3333C45.8865 29.5276 46.024 29.5172 46.2732 29.4829C46.9037 29.2869 47.46 28.9044 47.8687 28.3859C48.2774 27.8673 48.5194 27.237 48.5626 26.5782C48.6949 24.0001 46.2337 21.1727 41.8818 21.1985L41.8766 21.2019ZM9.59852 32.0782C8.20977 33.5907 6.27618 34.1613 5.44086 33.6783C4.54368 33.1627 4.89602 30.9283 6.60102 29.3265C7.61242 28.416 8.70558 27.6007 9.86665 26.891C10.0695 26.7672 10.3685 26.5919 10.726 26.3754L10.8223 26.3221L11.0337 26.1897C11.3383 27.2103 11.3659 28.2936 11.1137 29.3284C10.8615 30.3631 10.3386 31.3122 9.59852 32.0782ZM19.7065 25.2032C19.2235 26.3805 18.2129 29.3969 17.5976 29.2285C17.0699 29.0876 16.7382 26.8016 17.4927 24.5432C17.8737 23.456 18.4286 22.4378 19.1359 21.5285C19.8921 20.6846 20.7274 20.4027 20.9285 20.7465C20.7451 22.2845 20.3332 23.7866 19.7065 25.2032ZM28.0476 29.1941C27.8448 29.299 27.6523 29.366 27.5646 29.3179C27.5027 29.2835 27.6523 29.146 27.6523 29.146C27.6523 29.146 28.699 28.0202 29.1115 27.5115C29.3487 27.2124 29.6271 26.8618 29.9296 26.4647V26.5782C29.9296 27.9222 28.6285 28.828 28.0493 29.1976L28.0476 29.1941ZM34.4826 27.7263C34.3331 27.6215 34.3588 27.2691 34.8607 26.1708C35.2097 25.4655 35.6972 24.8377 36.2941 24.3249C36.3857 24.5851 36.4333 24.8586 36.4351 25.1344C36.4419 25.7215 36.2542 26.2942 35.9013 26.7634C35.5484 27.2325 35.0502 27.5717 34.4843 27.728L34.4826 27.7263Z" fill="white"/>
</svg>
